<svg viewBox="0 0 1000 620" xmlns="http://www.w3.org/2000/svg"><style>.b{opacity:0;animation:f .5s ease forwards}.b1{animation-delay:.1s}.b2{animation-delay:.5s}.b3{animation-delay:.9s}.b4{animation-delay:1.3s}@keyframes f{to{opacity:1}}</style><line x1="60" y1="310" x2="940" y2="310" stroke="#9aa0ab" stroke-width="2" opacity="0.4"/><g class="b b1"><rect x="50" y="250" width="180" height="120" rx="14" fill="#1e222a" stroke="#e8a13c" stroke-width="2"/><text x="140" y="300" fill="#f2f0eb" font-family="sans-serif" font-size="30" text-anchor="middle">Script</text><text x="140" y="338" fill="#9aa0ab" font-family="sans-serif" font-size="22" text-anchor="middle">words written</text></g><g class="b b2"><rect x="290" y="250" width="180" height="120" rx="14" fill="#1e222a" stroke="#e8a13c" stroke-width="2"/><text x="380" y="300" fill="#f2f0eb" font-family="sans-serif" font-size="30" text-anchor="middle">Slides</text><text x="380" y="338" fill="#9aa0ab" font-family="sans-serif" font-size="22" text-anchor="middle">visuals designed</text></g><g class="b b3"><rect x="530" y="250" width="180" height="120" rx="14" fill="#1e222a" stroke="#e8a13c" stroke-width="2"/><text x="620" y="300" fill="#f2f0eb" font-family="sans-serif" font-size="30" text-anchor="middle">Voice</text><text x="620" y="338" fill="#9aa0ab" font-family="sans-serif" font-size="22" text-anchor="middle">voice recorded</text></g><g class="b b4"><rect x="770" y="250" width="180" height="120" rx="14" fill="#1e222a" stroke="#e8a13c" stroke-width="2"/><text x="860" y="300" fill="#f2f0eb" font-family="sans-serif" font-size="30" text-anchor="middle">Outputs</text><text x="860" y="338" fill="#9aa0ab" font-family="sans-serif" font-size="22" text-anchor="middle">packaged</text></g><g fill="#e8a13c"><path d="M232 310 l30 0 M258 304 l10 6 -10 6 z"/><path d="M472 310 l30 0 M498 304 l10 6 -10 6 z"/><path d="M712 310 l30 0 M738 304 l10 6 -10 6 z"/></g></svg>