<svg viewBox="0 0 1000 620" xmlns="http://www.w3.org/2000/svg"><style>.n{opacity:0;animation:f .6s ease forwards}.n1{animation-delay:.1s}.n2{animation-delay:.6s}.n3{animation-delay:1.1s}@keyframes f{to{opacity:1}}</style><g fill="none" stroke="#e8a13c" stroke-width="2" opacity="0.5"><path d="M500 170 A150 150 0 0 1 630 400"/><path d="M630 400 A150 150 0 0 1 370 400"/><path d="M370 400 A150 150 0 0 1 500 170"/></g><g class="n n1"><circle cx="500" cy="160" r="70" fill="#1e222a" stroke="#e8a13c" stroke-width="2"/><text x="500" y="155" fill="#f2f0eb" font-family="sans-serif" font-size="26" text-anchor="middle">Review</text><text x="500" y="185" fill="#9aa0ab" font-family="sans-serif" font-size="22" text-anchor="middle">slide by slide</text></g><g class="n n2"><circle cx="665" cy="415" r="70" fill="#1e222a" stroke="#e8a13c" stroke-width="2"/><text x="665" y="410" fill="#f2f0eb" font-family="sans-serif" font-size="26" text-anchor="middle">Revise</text><text x="665" y="440" fill="#9aa0ab" font-family="sans-serif" font-size="22" text-anchor="middle">plain English</text></g><g class="n n3"><circle cx="335" cy="415" r="70" fill="#1e222a" stroke="#e8a13c" stroke-width="2"/><text x="335" y="410" fill="#f2f0eb" font-family="sans-serif" font-size="26" text-anchor="middle">Re-render</text><text x="335" y="440" fill="#9aa0ab" font-family="sans-serif" font-size="22" text-anchor="middle">~1 min</text></g><g fill="#e8a13c"><path d="M604 300 l12 -6 -2 14 z"/><path d="M500 486 l-8 -12 16 0 z"/><path d="M396 300 l-10 8 -2 -14 z"/></g></svg>