<svg xmlns="http://www.w3.org/2000/svg" viewBox="0 0 1000 620" font-family="sans-serif"><line x1="70" y1="310" x2="930" y2="310" stroke="#9aa0ab" stroke-width="2"/><g fill="#e8a13c"><circle cx="80" cy="310" r="7"/><circle cx="200" cy="310" r="7"/><circle cx="320" cy="310" r="7"/><circle cx="440" cy="310" r="7"/><circle cx="560" cy="310" r="7"/><circle cx="680" cy="310" r="7"/><circle cx="800" cy="310" r="7"/><circle cx="920" cy="310" r="7"/></g><g font-size="24" fill="#f2f0eb" font-weight="bold" text-anchor="middle"><text x="80" y="250">18:44</text><text x="320" y="250">19:21</text><text x="560" y="250">20:05</text><text x="800" y="250">20:36</text><text x="200" y="400">18:59</text><text x="440" y="400">19:40</text><text x="680" y="400">20:15</text><text x="920" y="400">20:50</text></g><g font-size="22" fill="#9aa0ab" text-anchor="middle"><text x="80" y="222">empty dir</text><text x="320" y="222">synced slides</text><text x="560" y="222">revision loop</text><text x="800" y="222">workbench</text><text x="200" y="430">first podcast</text><text x="440" y="430">captions</text><text x="680" y="430">template identity</text><text x="920" y="430">SVG charts</text></g></svg>