<svg xmlns="http://www.w3.org/2000/svg" viewBox="0 0 1000 620" font-family="sans-serif"><g><rect x="40" y="270" width="160" height="90" rx="10" fill="#1e222a" stroke="#e8a13c" stroke-width="2"/><rect x="240" y="270" width="160" height="90" rx="10" fill="#1e222a" stroke="#e8a13c" stroke-width="2"/><rect x="440" y="270" width="160" height="90" rx="10" fill="#1e222a" stroke="#e8a13c" stroke-width="2"/><rect x="640" y="270" width="160" height="90" rx="10" fill="#1e222a" stroke="#e8a13c" stroke-width="2"/><rect x="840" y="270" width="140" height="90" rx="10" fill="#e8a13c"/></g><g fill="#f2f0eb" font-size="24" text-anchor="middle" font-weight="bold"><text x="120" y="322">Extract</text><text x="320" y="322">Script</text><text x="520" y="322">Deck</text><text x="720" y="322">Voice</text></g><text x="910" y="322" fill="#1e222a" font-size="24" text-anchor="middle" font-weight="bold">Render</text><g stroke="#9aa0ab" stroke-width="2" fill="none"><path d="M200 315 L240 315"/><path d="M400 315 L440 315"/><path d="M600 315 L640 315"/><path d="M800 315 L840 315"/></g><g fill="#9aa0ab" font-size="22" text-anchor="middle"><text x="120" y="400">url / pdf</text><text x="320" y="400">dialogue</text><text x="520" y="400">slides</text><text x="720" y="400">neural TTS</text><text x="910" y="400">a/v + captions</text></g></svg>