<svg viewBox="0 0 1000 620" xmlns="http://www.w3.org/2000/svg"><style>@keyframes fadeUp{from{opacity:0;transform:translateY(14px)}to{opacity:1;transform:translateY(0)}}@keyframes draw{from{stroke-dashoffset:140}to{stroke-dashoffset:0}}.st{animation:fadeUp .6s ease-out both}.s2{animation-delay:.35s}.s3{animation-delay:.7s}.ar{animation:fadeUp .6s ease-out both;animation-delay:.5s}.a2{animation-delay:.85s}.aw{stroke-dasharray:140;stroke-dashoffset:0;animation:draw .8s ease-out both;animation-delay:.4s}.ck{animation:fadeUp .6s ease-out both;animation-delay:1s}</style><g class="st"><rect x="40" y="270" width="190" height="100" rx="10" fill="#e8a13c"/><text x="135" y="326" text-anchor="middle" font-family="sans-serif" font-size="26" font-weight="bold" fill="#1e222a">Agent · Stage 1</text></g><g class="st s2"><rect x="405" y="270" width="190" height="100" rx="10" fill="#e8a13c"/><text x="500" y="326" text-anchor="middle" font-family="sans-serif" font-size="26" font-weight="bold" fill="#1e222a">Agent · Stage 2</text></g><g class="st s3"><rect x="770" y="270" width="190" height="100" rx="10" fill="#e8a13c"/><text x="865" y="326" text-anchor="middle" font-family="sans-serif" font-size="26" font-weight="bold" fill="#1e222a">Agent · Stage 3</text></g><line class="aw" x1="230" y1="320" x2="290" y2="320" stroke="#9aa0ab" stroke-width="3"/><line class="aw" x1="350" y1="320" x2="405" y2="320" stroke="#9aa0ab" stroke-width="3"/><line class="aw" x1="595" y1="320" x2="655" y2="320" stroke="#9aa0ab" stroke-width="3"/><line class="aw" x1="715" y1="320" x2="770" y2="320" stroke="#9aa0ab" stroke-width="3"/><g class="ar"><rect x="290" y="290" width="60" height="60" rx="6" fill="none" stroke="#f2f0eb" stroke-width="2"/><text x="320" y="400" text-anchor="middle" font-family="sans-serif" font-size="22" fill="#9aa0ab">artifact</text></g><g class="ar a2"><rect x="655" y="290" width="60" height="60" rx="6" fill="none" stroke="#f2f0eb" stroke-width="2"/><text x="685" y="400" text-anchor="middle" font-family="sans-serif" font-size="22" fill="#9aa0ab">artifact</text></g><g class="ck"><circle cx="320" cy="190" r="16" fill="#e8a13c"/><line x1="320" y1="206" x2="320" y2="288" stroke="#e8a13c" stroke-width="2" stroke-dasharray="5 5"/><circle cx="685" cy="190" r="16" fill="#e8a13c"/><line x1="685" y1="206" x2="685" y2="288" stroke="#e8a13c" stroke-width="2" stroke-dasharray="5 5"/><text x="500" y="150" text-anchor="middle" font-family="sans-serif" font-size="24" fill="#f2f0eb">Human checkpoint — authority to reject</text></g></svg>